<?xml version="1.0"?>
<svg xmlns="http://www.w3.org/2000/svg" id="Layer_1" enable-background="new 0 0 480.007 480.007" height="512px" viewBox="0 0 480.007 480.007" width="512px"><g><path d="m475.224 322.902-42.12-120.67c-10.74-30.78-35.82-54.63-67.08-63.81-22.057-6.465-44.545-11.193-67.243-14.189-2.617-.346-5.256.63-6.985 2.625-3.645 4.208-8.557 6.923-13.774 7.896-3.963.739-6.683 4.418-6.47 8.443.919 17.324-12.841 33.155-31.549 33.155-18.581 0-32.581-15.744-31.526-33.348.243-4.05-2.666-7.527-6.651-8.29-5.245-1.005-10.044-3.744-13.594-7.833-1.74-2.004-4.379-3.004-7.01-2.657-22.672 2.992-45.181 7.723-67.309 14.218-31.22 9.18-56.28 33.02-67.01 63.78l-42.12 120.68c-14.566 41.692 5.148 87.541 45.33 105.73 37.273 16.846 79.542 4.681 102.854-25.855 3.114-4.079 1.578-10.084-3.14-12.104-20.022-8.574-34.071-29.015-32.736-52.786 1.481-26.379 22.252-48.076 48.549-50.624 28.69-2.78 53.414 17.036 58.431 43.723.737 3.919 4.175 6.74 8.159 6.583 4.888-.192 10.659-.192 15.545 0 3.985.157 7.423-2.664 8.16-6.584 5.013-26.663 29.701-46.482 58.383-43.728 26.304 2.525 47.097 24.211 48.595 50.593 1.351 23.784-12.701 44.243-32.734 52.822-4.717 2.02-6.254 8.024-3.14 12.103 23.252 30.45 65.467 42.754 102.854 25.856 40.241-18.214 59.878-64.093 45.331-105.729zm-315.265-75.721h-24.451v24.451c0 4.418-3.582 8-8 8s-8-3.582-8-8v-24.451h-24.45c-4.418 0-8-3.582-8-8s3.582-8 8-8h24.451v-24.451c0-4.418 3.582-8 8-8s8 3.582 8 8v24.451h24.451c4.418 0 8 3.582 8 8s-3.583 8-8.001 8zm157.927 6.49c-7.99 0-14.49-6.5-14.49-14.49s6.5-14.49 14.49-14.49 14.49 6.5 14.49 14.49-6.5 14.49-14.49 14.49zm32.45 32.451c-7.99 0-14.49-6.5-14.49-14.49s6.5-14.49 14.49-14.49 14.49 6.5 14.49 14.49-6.5 14.49-14.49 14.49zm0-64.901c-7.99 0-14.49-6.5-14.49-14.49s6.5-14.49 14.49-14.49 14.49 6.5 14.49 14.49-6.5 14.49-14.49 14.49zm32.451 32.45c-7.99 0-14.49-6.5-14.49-14.49s6.5-14.49 14.49-14.49 14.49 6.5 14.49 14.49-6.5 14.49-14.49 14.49zm-173.783 87.331c0 20.95-17.05 38-38 38s-38-17.05-38-38 17.05-38 38-38 38 17.05 38 38zm138 0c0 20.95-17.05 38-38 38s-38-17.05-38-38 17.05-38 38-38 38 17.05 38 38zm-35.56-256.33c-3.154 3.154-8.226 3.114-11.32 0-33.195-33.174-86.938-33.281-120.24 0-3.13 3.13-8.19 3.13-11.32 0-3.12-3.12-3.12-8.19 0-11.31 39.506-39.485 103.376-39.483 142.88 0 3.12 3.12 3.12 8.19 0 11.31zm-32.13 20.82c3.13 3.12 3.13 8.18 0 11.31-3.114 3.113-8.183 3.126-11.31 0-15.44-15.44-40.56-15.44-56 0-3.12 3.12-8.19 3.12-11.31 0-3.13-3.13-3.13-8.19 0-11.31 21.67-21.68 56.94-21.68 78.62 0zm-23.75 39.31c0 13.784-16.747 20.833-26.57 11.01-6.07-6.07-6.07-15.95 0-22.02 9.792-9.809 26.57-2.79 26.57 11.01z" data-original="#000000" class="active-path" data-old_color="#000000" fill="#9AB1C6"/></g> </svg>
