<?xml version="1.0"?>
<svg xmlns="http://www.w3.org/2000/svg" id="Capa_1" enable-background="new 0 0 512 512" height="512px" viewBox="0 0 512 512" width="512px"><g><g><path d="m512 31h-512v90h512zm-321 30h50v30h-50zm-30 30h-50v-30h50zm110-30h50v30h-50zm80 0h50v30h-50zm-321 0h51v30h-51zm452 30h-51v-30h51z" data-original="#000000" class="active-path" data-old_color="#000000" fill="#9AB1C6"/><path d="m241 224.022v63.956l47.959-31.978z" data-original="#000000" class="active-path" data-old_color="#000000" fill="#9AB1C6"/><path d="m482 361v-210h-452v210zm-271-193.022 132.041 88.022-132.041 88.022z" data-original="#000000" class="active-path" data-old_color="#000000" fill="#9AB1C6"/><path d="m512 391h-512v90h512zm-321 30h50v30h-50zm-30 30h-50v-30h50zm110-30h50v30h-50zm80 0h50v30h-50zm-321 0h51v30h-51zm452 30h-51v-30h51z" data-original="#000000" class="active-path" data-old_color="#000000" fill="#9AB1C6"/></g></g> </svg>
